@startuml person-hierarchy
scale 3
skinparam dpi 300
skinparam classAttributeIconSize 0
skinparam backgroundColor transparent
skinparam classFontSize 14
skinparam classAttributeFontSize 13
skinparam padding 4
skinparam class {
  BackgroundColor white
  BorderColor #cccccc
  AttributeFontColor #000000
}
skinparam note {
  BackgroundColor #f5f5f5
  BorderColor #cccccc
  FontColor #333333
}


class "person" {
  String given-names
  String family-names
  __
  <i><color:#666666>URI orcid? </color></i>
  <i><color:#666666>credit[] credit? </color></i>
}

note bottom of "person"
  Eine Person, die an der Erstellung
  des Buches beteiligt ist.
  
  - given-names: Vornamen
  - family-names: Familiennamen
  - orcid (empfohlen): ORCID
  - credit (empfohlen): CRediT-Rollen
  
  Zusätzliche Felder wie Zugehörigkeit (<i>affiliation</i>)
  können je nach Bedarf hinzugefügt werden.
end note

class "author"
class "contributor"

"author" --|> "person"
"contributor" --|> "person"

note bottom of "contributor"
  Verwenden Sie dieses Metadatenfeld,
  um Personen zu würdigen, die keine
  Autoren sind, aber erheblich zur
  Entwicklung der OER beigetragen haben.
  
  Sowohl author als auch contributor
  erben von der person-Klasse.
end note

@enduml
